<?xml version="1.0" standalone="no"?><!DOCTYPE svg PUBLIC "-//W3C//DTD SVG 1.1//EN" "http://www.w3.org/Graphics/SVG/1.1/DTD/svg11.dtd"><svg t="1717833903337" class="icon" viewBox="0 0 1024 1024" version="1.1" xmlns="http://www.w3.org/2000/svg" p-id="38856" xmlns:xlink="http://www.w3.org/1999/xlink" width="256" height="256"><path d="M379.648 85.333333a128 128 0 0 0-95.658667 42.965334l-123.648 139.093333A128 128 0 0 0 128 352.426667V810.666667a128 128 0 0 0 128 128h402.304a42.666667 42.666667 0 1 0 0-85.333334H256a42.666667 42.666667 0 0 1-42.666667-42.666666V352.426667a42.666667 42.666667 0 0 1 10.794667-28.330667l123.648-139.093333A42.666667 42.666667 0 0 1 379.648 170.666667H768a42.666667 42.666667 0 0 1 42.666667 42.666666v170.666667a42.666667 42.666667 0 1 0 85.333333 0V213.333333a128 128 0 0 0-128-128H379.648z" fill="#1C2023" p-id="38857"></path><path d="M453.802667 530.901333a8.533333 8.533333 0 0 0-8.533334 8.533334v157.098666a28.8 28.8 0 0 1-57.6 0v-157.098666a8.533333 8.533333 0 0 0-8.533333-8.533334h-39.466667a22.229333 22.229333 0 0 1 0-44.458666H494.933333a22.229333 22.229333 0 1 1 0 44.458666h-41.088zM683.818667 681.045333a22.186667 22.186667 0 1 1 0 44.288H597.333333a57.6 57.6 0 0 1-55.765333-57.6v-123.690666c0-31.786667 25.770667-57.6 57.6-57.6h85.034667a22.186667 22.186667 0 1 1 0 44.458666h-76.501334a8.533333 8.533333 0 0 0-8.533333 8.533334v33.28c0 4.736 3.84 8.533333 8.533333 8.533333h60.458667a21.418667 21.418667 0 0 1 0 42.88h-60.458667a8.533333 8.533333 0 0 0-8.533333 8.533333v39.850667c0 4.693333 3.84 8.533333 8.533333 8.533333h76.117334zM787.370667 502.186667a28.16 28.16 0 1 0-49.834667 26.282666l40.704 72.234667a8.533333 8.533333 0 0 1 0 8.405333l-42.026667 73.813334a28.416 28.416 0 1 0 50.090667 26.666666l24.746667-49.749333a8.533333 8.533333 0 0 1 15.274666 0l24.746667 49.749333a28.330667 28.330667 0 1 0 50.005333-26.624l-41.941333-73.856a8.533333 8.533333 0 0 1 0-8.405333l40.618667-72.32a28.16 28.16 0 1 0-49.749334-26.197333l-23.68 48.128a8.533333 8.533333 0 0 1-15.317333 0l-23.637333-48.128z" fill="#1C2023" p-id="38858"></path></svg>