<?xml version="1.0" standalone="no"?><!DOCTYPE svg PUBLIC "-//W3C//DTD SVG 1.1//EN" "http://www.w3.org/Graphics/SVG/1.1/DTD/svg11.dtd"><svg t="1717833463576" class="icon" viewBox="0 0 1024 1024" version="1.1" xmlns="http://www.w3.org/2000/svg" p-id="26011" width="256" height="256" xmlns:xlink="http://www.w3.org/1999/xlink"><path d="M320 447.84c0-35.264 28.576-63.84 63.84-63.84h448.32c35.264 0 63.84 28.576 63.84 63.84v448.32A63.84 63.84 0 0 1 832.16 960h-448.32A63.84 63.84 0 0 1 320 896.16v-448.32z m64 32.384v383.552c0 17.824 14.4 32.224 32.224 32.224h383.552C817.6 896 832 881.6 832 863.776V480.224C832 462.4 817.6 448 799.776 448H416.224C398.4 448 384 462.4 384 480.224zM448 800c0-17.664 14.496-32 31.904-32h192.192c17.6 0 31.904 14.208 31.904 32 0 17.664-14.496 32-31.904 32h-192.192A31.872 31.872 0 0 1 448 800z m0-128c0-17.664 14.592-32 31.84-32h256.32c17.6 0 31.84 14.208 31.84 32 0 17.664-14.592 32-31.84 32h-256.32A31.84 31.84 0 0 1 448 672z m0-128c0-17.664 14.592-32 31.84-32h256.32c17.6 0 31.84 14.208 31.84 32 0 17.664-14.592 32-31.84 32h-256.32A31.84 31.84 0 0 1 448 544z m256-288V192h63.872C803.296 192 832 220.48 832 256.128V320h-64V287.968A31.776 31.776 0 0 0 736.032 256H704zM256 256H223.968A31.776 31.776 0 0 0 192 287.968V768c0 17.92 14.304 31.968 31.968 31.968H256v64H192.128A63.968 63.968 0 0 1 128 799.872V256.128C128 220.704 156.48 192 192.128 192H256v64z m64-32c0-17.664 14.592-32 31.84-32h256.32c17.6 0 31.84 14.208 31.84 32 0 17.664-14.592 32-31.84 32h-256.32A31.84 31.84 0 0 1 320 224z m64-128a32 32 0 0 1 31.68-32h128.64c17.472 0 31.68 14.208 31.68 32a32 32 0 0 1-31.68 32h-128.64A31.776 31.776 0 0 1 384 96z" fill="#333333" p-id="26012"></path></svg>