<?xml version="1.0" standalone="no"?><!DOCTYPE svg PUBLIC "-//W3C//DTD SVG 1.1//EN" "http://www.w3.org/Graphics/SVG/1.1/DTD/svg11.dtd"><svg t="1717833803389" class="icon" viewBox="0 0 1024 1024" version="1.1" xmlns="http://www.w3.org/2000/svg" p-id="37807" width="256" height="256" xmlns:xlink="http://www.w3.org/1999/xlink"><path d="M551.31 666.87h258.9v228.77h-258.9z" fill="#1792E5" p-id="37808"></path><path d="M614.16 156.36c98.73 9.91 177.94 69.31 194.84 171.18h-57.15l92.22 137.2 92.28-137.2H872.7c-16.9-137.2-120.79-226.37-252-239.07-18.18-1.47-35 14.09-35 33.91 1.21 17 12.88 32.53 28.5 34zM471.31 87H150.53c-18.18 0-32.46 15.56-32.46 35.38V428c0 19.81 14.28 35.38 32.46 35.38h320.78c18.18 0 32.46-15.57 32.46-35.38V122.38c0-19.82-14.28-35.38-32.46-35.38z m-31.18 308.45H181.71V154.91h258.48v240.54z m-31.19 469.71C298.55 855.26 214.11 781.7 210.22 660h61L179.1 522.8 86.88 660h61c2.56 157.08 113 258.9 254.59 273.06 18.18 1.4 35.07-14.16 35.07-34a33.85 33.85 0 0 0-28.63-33.92z m465-307H553.13c-18.23 0-32.46 15.62-32.46 35.38v307c0 19.76 14.23 35.32 32.46 35.32h320.79c18.17 0 32.4-15.56 32.4-35.32v-307c0.06-19.76-15.5-35.38-32.34-35.38z m-31.21 308.4H584.32V627.42h258.41z m0 0" fill="#424242" p-id="37809"></path></svg>