<?xml version="1.0" standalone="no"?><!DOCTYPE svg PUBLIC "-//W3C//DTD SVG 1.1//EN" "http://www.w3.org/Graphics/SVG/1.1/DTD/svg11.dtd"><svg t="1717833615571" class="icon" viewBox="0 0 1024 1024" version="1.1" xmlns="http://www.w3.org/2000/svg" p-id="32284" width="256" height="256" xmlns:xlink="http://www.w3.org/1999/xlink"><path d="M972.8 23.552c15.36 0 26.624 12.288 26.624 26.624v921.6c0 15.36-12.288 26.624-26.624 26.624H51.2c-15.36 0-26.624-12.288-26.624-26.624V51.2c0-15.36 12.288-26.624 26.624-26.624h921.6z m-26.624 54.272H77.824v867.328h867.328V77.824zM390.144 264.192L573.44 729.088h-58.368l-49.152-130.048H251.904l-49.152 130.048h-57.344L327.68 264.192h62.464z m284.672-9.216v474.112h-51.2V254.976h51.2z m153.6 0v474.112h-51.2V254.976h51.2z m-467.968 66.56H358.4l-89.088 232.448h179.2l-88.064-232.448z m0 0" fill="#282828" p-id="32285"></path><path d="M972.8 1003.52H51.2c-17.408 0-30.72-14.336-30.72-30.72V51.2c0-17.408 14.336-30.72 30.72-30.72h921.6c17.408 0 30.72 14.336 30.72 30.72v921.6c0 17.408-13.312 30.72-30.72 30.72zM51.2 27.648c-13.312 0-23.552 10.24-23.552 23.552v921.6c0 13.312 10.24 23.552 23.552 23.552h921.6c13.312 0 23.552-10.24 23.552-23.552V51.2c0-13.312-10.24-23.552-23.552-23.552H51.2z m898.048 921.6H74.752V74.752h875.52v874.496zM81.92 942.08h860.16V81.92H81.92v860.16z m749.568-208.896h-59.392v-481.28h59.392v481.28z m-51.2-8.192h44.032V259.072h-44.032v465.92z m-101.376 8.192h-59.392v-481.28h59.392v481.28z m-51.2-8.192h44.032V259.072h-44.032v465.92z m-49.152 8.192H512l-49.152-130.048H254.976L204.8 733.184h-65.536l186.368-472.064h66.56l186.368 472.064z m-61.44-8.192h49.152L387.072 268.288h-56.32L150.528 724.992h49.152l49.152-130.048h219.136l49.152 130.048z m-63.488-166.912H263.168l92.16-239.616h8.192l90.112 239.616z m-179.2-8.192h168.96l-83.968-221.184-84.992 221.184z" fill="#282828" p-id="32286"></path></svg>