<?xml version="1.0" standalone="no"?><!DOCTYPE svg PUBLIC "-//W3C//DTD SVG 1.1//EN" "http://www.w3.org/Graphics/SVG/1.1/DTD/svg11.dtd"><svg t="1717833773712" class="icon" viewBox="0 0 1024 1024" version="1.1" xmlns="http://www.w3.org/2000/svg" p-id="35146" width="256" height="256" xmlns:xlink="http://www.w3.org/1999/xlink"><path d="M427.6 200.5H232.9v155.8h194.7V200.5z m-19.5 136.3H252.3V220h155.8v116.8zM596.7 454.9c-67.9 0-122.9 55-122.9 122.9s55 122.9 122.9 122.9 122.9-55 122.9-122.9-55-122.9-122.9-122.9z m0 226.3c-57 0-103.4-46.4-103.4-103.4s46.4-103.4 103.4-103.4 103.4 46.4 103.4 103.4-46.4 103.4-103.4 103.4z" p-id="35147" fill="#2c2c2c"></path><path d="M877.2 811.2l-60.9-60.9c0.4-1.5 0.6-3.1 0.6-4.7V120.9c0-31.2-24.7-56.7-55.2-56.7h-571c-30.4 0-55.2 25.4-55.2 56.7v782.2c0 31.2 24.7 56.7 55.2 56.7h571.1c30.4 0 55.2-25.4 55.2-56.7v-35.3l1.8 1.8c7.3 7.3 17 11.4 27.4 11.4h0.1c10.4 0 20.2-4 27.5-11.4l3.4-3.4c7.4-7.4 11.4-17.2 11.4-27.7 0-10.3-4-20-11.4-27.3zM778 903.1c0 9.6-7.4 17.7-16.2 17.7H190.7c-8.8 0-16.2-8.1-16.2-17.7V120.9c0-9.6 7.4-17.7 16.2-17.7h571.1c8.8 0 16.2 8.1 16.2 17.7V712l-20-20c-6-6-13.6-9.9-22-11 21.9-29.6 34-65.8 34-103.1 0-47.9-20-94-54.7-126.6-32.1-30.2-74.2-46.9-118.6-46.9-46.4 0-89.9 18-122.6 50.7s-50.7 76.3-50.7 122.6 18 89.9 50.8 122.6C506.9 733 550.5 751 596.8 751c32.8 0 64.3-9.1 91.5-26 0.5 9.6 4.5 18.5 11.3 25.3l78.5 78.5v74.3z m-89.3-227.3c-24.9 23.4-57.5 36.3-92 36.3-74.1 0-134.4-60.3-134.4-134.4 0-36 14-69.7 39.3-95.1 25.4-25.4 59.1-39.3 95.1-39.3 34.4 0 67.1 12.9 92 36.3 27.4 25.6 42.4 60.5 42.4 98.2 0 37.1-15.4 72.8-42.4 98z m157.6 166.3L727.1 722.8l3.4-3.3 119.2 119.2-3.4 3.4z" p-id="35148" fill="#2c2c2c"></path><path d="M486 200.5h116.8V220H486zM486 297.8h116.8v19.5H486zM486 249.2h194.7v19.4H486zM232.9 434.1h116.8v19.5H232.9zM232.9 550.9h155.7v19.5H232.9zM232.9 492.5h155.7V512H232.9zM232.9 667.8h155.7v19.4H232.9zM232.9 609.3h155.7v19.5H232.9zM232.9 784.6h331V804h-331zM232.9 726.2H447v19.4H232.9z" p-id="35149" fill="#2c2c2c"></path></svg>