<?xml version="1.0" standalone="no"?><!DOCTYPE svg PUBLIC "-//W3C//DTD SVG 1.1//EN" "http://www.w3.org/Graphics/SVG/1.1/DTD/svg11.dtd"><svg t="1717832513918" class="icon" viewBox="0 0 1024 1024" version="1.1" xmlns="http://www.w3.org/2000/svg" p-id="8489" xmlns:xlink="http://www.w3.org/1999/xlink" width="256" height="256"><path d="M938.24 746.667h0.427v128h-0.427v64A85.333 85.333 0 0 1 852.907 1024h-682.24a85.333 85.333 0 0 1-85.334-85.333V85.333A85.333 85.333 0 0 1 170.667 0h512v10.09a21.248 21.248 0 0 1 23.488 4.48l226.261 226.262a21.227 21.227 0 0 1 5.803 19.243v486.592z m-50.901-490.838L682.347 50.837v162.326a42.667 42.667 0 0 0 42.666 42.666H887.34zM639.7 42.667H170.667A42.667 42.667 0 0 0 128 85.333v853.334a42.667 42.667 0 0 0 42.667 42.666h682.24a42.667 42.667 0 0 0 42.666-42.666V298.496H725.035a85.333 85.333 0 0 1-85.334-85.333V42.667zM277.163 531.115H746.41a21.248 21.248 0 1 1 0 42.496H277.163a21.248 21.248 0 1 1 0-42.496z m0 169.962H746.41a21.248 21.248 0 1 1 0 42.496H277.163a21.248 21.248 0 1 1 0-42.496z m661.056 45.59H896v128h42.24v-128z" fill="#000000" p-id="8490"></path></svg>