<?xml version="1.0" standalone="no"?><!DOCTYPE svg PUBLIC "-//W3C//DTD SVG 1.1//EN" "http://www.w3.org/Graphics/SVG/1.1/DTD/svg11.dtd"><svg t="1717832976508" class="icon" viewBox="0 0 1024 1024" version="1.1" xmlns="http://www.w3.org/2000/svg" p-id="14460" width="256" height="256" xmlns:xlink="http://www.w3.org/1999/xlink"><path d="M736 32a128 128 0 0 1 128 128v384a128 128 0 0 1 128 128v192a128 128 0 0 1-128 128h-256a128 128 0 0 1-128-128h-320a128 128 0 0 1-128-128v-576a128 128 0 0 1 128-128h576z m128 576h-256a64 64 0 0 0-63.552 56.512L544 672v192a64 64 0 0 0 56.512 63.552l7.488 0.448h256a64 64 0 0 0 63.552-56.512l0.448-7.488v-192a64 64 0 0 0-56.512-63.552L864 608z m-128-512h-576a64 64 0 0 0-63.552 56.512L96 160v576a64 64 0 0 0 56.512 63.552l7.488 0.448h320v-128a128 128 0 0 1 128-128h192v-384a64 64 0 0 0-56.512-63.552L736 96zM242.176 197.696l4.48 3.648L384 338.752V256a32 32 0 0 1 26.24-31.488L416 224a32 32 0 0 1 31.488 26.24L448 256v144a48 48 0 0 1-41.472 47.552L400 448H256a32 32 0 0 1-5.76-63.488L256 384h82.752L201.344 246.656a32 32 0 0 1 40.832-48.96z" fill="#18191A" p-id="14461"></path></svg>