<?xml version="1.0" standalone="no"?><!DOCTYPE svg PUBLIC "-//W3C//DTD SVG 1.1//EN" "http://www.w3.org/Graphics/SVG/1.1/DTD/svg11.dtd"><svg t="1717833071554" class="icon" viewBox="0 0 1024 1024" version="1.1" xmlns="http://www.w3.org/2000/svg" p-id="15548" width="256" height="256" xmlns:xlink="http://www.w3.org/1999/xlink"><path d="M115.3536 1021.3376c-19.8144 0-35.84-16.0256-35.84-35.84V36.352c0-19.8144 16.0256-35.84 35.84-35.84H692.224c10.8032 0 21.0432 4.864 27.8528 13.312l217.7024 268.9024a35.82464 35.82464 0 0 1 7.9872 22.528v677.5296c0 19.712-15.9232 35.6864-35.584 35.84l-397.312 2.7136H115.3536z m794.5728-38.5024z m-758.7328-33.1776h361.472l361.472-2.4576V317.952l-198.9632-245.76H151.1936v877.4656z" fill="#262E3E" p-id="15549"></path><path d="M705.8432 1015.7568H319.4368c-19.8144 0-35.84-16.0256-35.84-35.84v-264.0384c0-19.8144 16.0256-35.84 35.84-35.84h386.4064c19.8144 0 35.84 16.0256 35.84 35.84v264.0384c0 19.7632-16.0256 35.84-35.84 35.84z m-350.5664-71.68h314.7264v-192.3584H355.2768v192.3584zM319.4368 523.5712c-19.8144 0-35.84-16.0256-35.84-35.84V224.9728c0-19.8144 16.0256-35.84 35.84-35.84s35.84 16.0256 35.84 35.84v262.7584c0 19.8144-16.0256 35.84-35.84 35.84z" fill="#262E3E" p-id="15550"></path></svg>