<?xml version="1.0" standalone="no"?><!DOCTYPE svg PUBLIC "-//W3C//DTD SVG 1.1//EN" "http://www.w3.org/Graphics/SVG/1.1/DTD/svg11.dtd"><svg t="1717832681065" class="icon" viewBox="0 0 1024 1024" version="1.1" xmlns="http://www.w3.org/2000/svg" p-id="9527" width="256" height="256" xmlns:xlink="http://www.w3.org/1999/xlink"><path d="M320 832H152.96l151.04-448h586.24l-15.36 64h64L960 372.48a42.88 42.88 0 0 0-44.16-52.48H292.48a46.72 46.72 0 0 0-44.8 32L64 896h256z" fill="#575757" p-id="9528"></path><path d="M256 832H128V128h101.76l128 128H768v128h64V227.2a35.2 35.2 0 0 0-35.2-35.2H384L267.52 75.52A38.4 38.4 0 0 0 240 64H102.4a38.4 38.4 0 0 0-38.4 38.4V896h192z" fill="#575757" p-id="9529"></path><path d="M640 512a192 192 0 1 1-192 192 192 192 0 0 1 192-192z m0-64a256 256 0 1 0 256 256 256 256 0 0 0-256-256z" fill="#575757" p-id="9530"></path><path d="M640 576H576v128h64V576zM768 704H576v64h192v-64z" fill="#575757" p-id="9531"></path></svg>