<?xml version="1.0" standalone="no"?><!DOCTYPE svg PUBLIC "-//W3C//DTD SVG 1.1//EN" "http://www.w3.org/Graphics/SVG/1.1/DTD/svg11.dtd"><svg t="1717832761968" class="icon" viewBox="0 0 1024 1024" version="1.1" xmlns="http://www.w3.org/2000/svg" p-id="11483" width="256" height="256" xmlns:xlink="http://www.w3.org/1999/xlink"><path d="M234.666667 938.666667a63.573333 63.573333 0 0 1-24.917334-5.034667 64 64 0 0 1-10.88-5.888 64.426667 64.426667 0 0 1-9.472-7.808 64.213333 64.213333 0 0 1-7.808-9.472 64 64 0 0 1-5.888-10.88A63.701333 63.701333 0 0 1 170.666667 874.666667v-725.333334a63.701333 63.701333 0 0 1 5.034666-24.917333 64 64 0 0 1 5.888-10.88 64 64 0 0 1 7.808-9.472 64.64 64.64 0 0 1 9.472-7.808 64 64 0 0 1 10.88-5.888A63.573333 63.573333 0 0 1 234.666667 85.333333H640l213.333333 213.333334v576a63.488 63.488 0 0 1-5.034666 24.917333 64 64 0 0 1-5.888 10.88 64.981333 64.981333 0 0 1-7.808 9.472 64 64 0 0 1-9.472 7.808 64 64 0 0 1-10.88 5.888A63.616 63.616 0 0 1 789.333333 938.666667z m-4.266667-59.733334h563.2V384H554.666667V145.066667H230.4z m563.968-554.666666L614.4 144.298667l0.768 0.768H614.4v179.2h179.2v-0.768zM482.133333 797.866667v-140.8H341.333333V597.333333h140.8v-140.8h59.733334V597.333333H682.666667v59.733334h-140.8v140.8z" p-id="11484"></path></svg>