<?xml version="1.0" standalone="no"?><!DOCTYPE svg PUBLIC "-//W3C//DTD SVG 1.1//EN" "http://www.w3.org/Graphics/SVG/1.1/DTD/svg11.dtd"><svg t="1717772839078" class="icon" viewBox="0 0 1024 1024" version="1.1" xmlns="http://www.w3.org/2000/svg" p-id="3127" width="256" height="256" xmlns:xlink="http://www.w3.org/1999/xlink"><path d="M510.016 128.992c-96.672 0.416-192.64 12.672-242.56 35.68 0 0-107.456 48.928-107.456 215.52 0 198.304-0.16 447.36 178.016 495.488 68.192 18.336 126.88 22.304 174.048 19.584 85.6-4.832 127.936-31.072 127.936-31.072l-2.88-63.264s-55.488 19.552-124.16 17.312c-68.096-2.4-139.808-7.488-150.976-92.48a180.48 180.48 0 0 1-1.472-23.872c144.224 35.808 267.2 15.584 301.056 11.488 94.528-11.488 176.8-70.752 187.296-124.928 16.448-85.376 15.072-208.256 15.072-208.256 0-166.592-107.264-215.52-107.264-215.52-52.64-24.576-150.016-36.064-246.688-35.68z m-103.456 127.072c33.12 0.896 65.856 15.68 86.016 47.008l19.488 33.12 19.424-33.12c40.48-62.944 131.2-59.04 174.4-10.336 39.808 46.336 30.912 76.256 30.912 283.264v0.064h-78.304v-180.128c0-84.32-107.52-87.584-107.52 11.68V512h-77.76v-104.384c0-99.264-107.456-96.064-107.456-11.744V576H287.264c0-207.168-8.736-237.28 30.912-283.264 21.76-24.512 55.264-37.568 88.384-36.672z" p-id="3128" fill="#d81e06"></path></svg>